<?xml version="1.0" encoding="utf-8"?>
<!-- Generator: Adobe Illustrator 25.0.0, SVG Export Plug-In . SVG Version: 6.00 Build 0)  -->
<svg version="1.1" id="Layer_1_1_" xmlns="http://www.w3.org/2000/svg" xmlns:xlink="http://www.w3.org/1999/xlink" x="0px" y="0px"
	 viewBox="0 0 512 512" style="enable-background:new 0 0 512 512;" xml:space="preserve">
<style type="text/css">
	.st0{fill:#1A1A1A;}
	.st1{fill:#FFFFFF;}
	.st2{fill:#71D2DF;}
	.st3{fill:#F6DB40;}
	.st4{fill:#DB535B;}
	.st5{fill:#8360F4;}
	.st6{fill:#6599ED;}
</style>
<g>
	<g>
		<path class="st0" d="M256,508c-41.9,0-76-34.1-76-76c0-2.4,0.1-4.9,0.4-7.4l-43.8-22c-14.3,16-34.9,25.3-56.5,25.3
			c-41.9,0-76-34.1-76-76s34.1-76,76-76c7.8,0,15.5,1.2,23,3.6l17.9-27.7l-20.6-34.7c-6.6,1.8-13.4,2.8-20.4,2.8
			c-41.9,0-76-34.1-76-76s34.1-76,76-76c24.8,0,47.9,12.2,62,32.2l38.3-14c-0.2-2.1-0.3-4.2-0.3-6.2c0-41.9,34.1-76,76-76
			c41.9,0,76,34.1,76,76c0,13.4-3.4,26.3-10,37.7l72.3,72.3c11.4-6.6,24.3-10,37.7-10c41.9,0,76,34.1,76,76c0,41.9-34.1,76-76,76
			c-12.8,0-25.1-3.2-36.2-9.2l-71.9,75.1c5.3,10.5,8.1,22.1,8.1,34.1C332,473.9,297.9,508,256,508z M256,396c-19.9,0-36,16.1-36,36
			s16.1,36,36,36s36-16.1,36-36S275.9,396,256,396z M80,316c-19.9,0-36,16.1-36,36s16.1,36,36,36s36-16.1,36-36S99.9,316,80,316z
			 M194.8,387.1c1.2-1.6,2.4-3.1,3.7-4.6l-54.8-92.2l-7.2,11.1c12.4,13.8,19.4,31.9,19.4,50.7c0,5-0.5,10-1.5,14.9L194.8,387.1z
			 M276,358.8c7.5,2,14.6,5.2,21,9.4l69.8-73c-5.4-8.9-8.9-18.9-10.3-29.2l-30.8-4.2c-9.1,21.5-27.3,37.5-49.9,43.5V358.8z
			 M231.7,360c1.4-0.5,2.8-0.9,4.3-1.3v-53.5c-14.7-4-27.9-12.4-37.9-24.1c-11.2-13.2-17.6-29.7-18.1-46.9l-12,18.6L231.7,360z
			 M432,220c-19.9,0-36,16.1-36,36s16.1,36,36,36s36-16.1,36-36S451.9,220,432,220z M256,196c-19.9,0-36,16.1-36,36s16.1,36,36,36
			s36-16.1,36-36S275.9,196,256,196z M362.1,226.3c1.2-2.7,2.5-5.4,4-8l-72.4-72.4c-11.4,6.6-24.3,10-37.7,10
			c19.9,0,38.7,7.7,53,21.5c12.4,12.1,20.2,27.7,22.4,44.5L362.1,226.3z M145.2,214.4l7.6-11.7l-16.1-8.1c-0.6,0.7-1.3,1.4-1.9,2
			L145.2,214.4z M80,108c-19.9,0-36,16.1-36,36s16.1,36,36,36s36-16.1,36-36S99.9,108,80,108z M174.6,168.9l24.8-38.3
			c-1.9-2.2-3.7-4.5-5.4-6.8l-38.3,13.9c0.2,2.1,0.3,4.2,0.3,6.2c0,5-0.5,10-1.5,14.9L174.6,168.9z M226.9,161.7
			c9.1-3.8,19-5.8,29.1-5.8c-7.8,0-15.5-1.2-23-3.6L226.9,161.7z M256,44c-19.9,0-36,16.1-36,36s16.1,36,36,36s36-16.1,36-36
			S275.9,44,256,44z"/>
		<path class="st1" d="M256,13c36.9,0,67,30.1,67,67c0,14.1-4.3,27.5-12.5,38.9l82.6,82.6c11.4-8.2,24.8-12.5,38.9-12.5
			c36.9,0,67,30.1,67,67s-30.1,67-67,67c-13.5,0-26.5-4-37.7-11.7l-81.5,85.2c6.7,10.6,10.2,22.8,10.2,35.5c0,36.9-30.1,67-67,67
			s-67-30.1-67-67c0-4.1,0.4-8.3,1.2-12.5l-56.1-28.1C121.5,408.7,101.5,419,80,419c-36.9,0-67-30.1-67-67s30.1-67,67-67
			c9.2,0,18.1,1.9,26.6,5.6l24.9-38.5l-27.2-45.7c-7.8,3.1-16,4.6-24.4,4.6c-36.9,0-67-30.1-67-67s30.1-67,67-67
			c24.3,0,46.4,13,58.3,34.1l51.9-18.9C189.4,88.1,189,84,189,80C189,43.1,219.1,13,256,13 M256,125c24.8,0,45-20.2,45-45
			s-20.2-45-45-45s-45,20.2-45,45S231.2,125,256,125 M80,189c24.8,0,45-20.2,45-45s-20.2-45-45-45s-45,20.2-45,45S55.2,189,80,189
			 M177.8,180.6l33.1-51.1c-5.3-4.8-9.7-10.4-13.2-16.6l-51.9,18.9c0.8,4.1,1.2,8.2,1.2,12.2c0,6.6-1,13.2-3,19.7L177.8,180.6
			 M256,146.9c-9.2,0-18.1-1.9-26.6-5.6l-31.8,49.1l4.2,2.1c12.6-17.3,32.7-27.6,54.2-27.6c36.3,0,65.9,29,67,65l45.1,6.3
			c2.1-6.9,5.3-13.3,9.5-19.1l-82.7-82.7C283.5,142.6,270.1,146.9,256,146.9 M144.9,231.5l20.9-32.3l-31.6-15.8
			c-3.1,4.3-6.8,8.2-10.9,11.7L144.9,231.5 M256,277c24.8,0,45-20.2,45-45s-20.2-45-45-45s-45,20.2-45,45S231.2,277,256,277
			 M227.9,371.2c5.4-2.5,11.2-4.3,17.1-5.3V298c-32.1-5.3-56-33.3-56-66c0-6.6,1-13.2,3-19.7l-6.4-3.2l-28.2,43.5L227.9,371.2
			 M432,301c24.8,0,45-20.2,45-45s-20.2-45-45-45s-45,20.2-45,45S407.2,301,432,301 M298.1,380.1l80.3-83.9
			c-8.3-11-13-24.4-13.4-38.1l-45.1-6.2c-7.5,24.3-27.9,42.1-52.9,46.2V366C278.4,367.9,289.1,372.7,298.1,380.1 M197.9,398.7
			c3.2-5.5,7.1-10.5,11.8-15L144,273.2l-19,29.3c14,12.7,21.9,30.6,21.9,49.5c0,6.6-1,13.2-3,19.7L197.9,398.7 M80,397
			c24.8,0,45-20.2,45-45s-20.2-45-45-45s-45,20.2-45,45S55.2,397,80,397 M256,477c24.8,0,45-20.2,45-45s-20.2-45-45-45
			s-45,20.2-45,45S231.2,477,256,477 M256-5c-46.9,0-85,38.1-85,85l-26,9.5c-6.3-7.5-13.8-13.9-22.2-18.8C109.8,63,95,59,79.9,59
			c-46.9,0-85,38.1-85,85s38.1,85,85,85c5.4,0,10.8-0.5,16-1.5l14.4,24.2L99,269.2c-6.2-1.5-12.6-2.2-19-2.2c-46.9,0-85,38.1-85,85
			s38.1,85,85,85c21.8,0,42.7-8.5,58.4-23.3L171,430c0,0.7,0,1.3,0,2c0,46.9,38.1,85,85,85s85-38.1,85-85c0-11.2-2.2-22.1-6.4-32.3
			l63.1-65.9c10.7,4.8,22.4,7.2,34.3,7.2c46.9,0,85-38.1,85-85s-38.1-85-85-85c-12.6,0-24.8,2.7-36,8l-63-63c5.2-11.2,8-23.4,8-36
			C341,33.1,302.9-5,256-5L256-5z M256,107c-14.9,0-27-12.1-27-27s12.1-27,27-27c14.9,0,27,12.1,27,27S270.9,107,256,107L256,107z
			 M80,171c-14.9,0-27-12.1-27-27s12.1-27,27-27s27,12.1,27,27S94.9,171,80,171L80,171z M165,144l19.7-7.2l-13.3,20.5l-7-3.5
			C164.8,150.5,165,147.3,165,144C165,144,165,144,165,144L165,144z M339.1,214c-1.1-4.9-2.6-9.7-4.5-14.4l16,16L339.1,214
			L339.1,214z M256,259c-14.9,0-27-12.1-27-27s12.1-27,27-27c14.9,0,27,12.1,27,27S270.9,259,256,259L256,259z M432,283
			c-14.9,0-27-12.1-27-27s12.1-27,27-27s27,12.1,27,27S446.9,283,432,283L432,283z M285,311.9c9.8-3.5,18.9-8.9,26.9-15.8
			c7.9-6.9,14.5-15.2,19.3-24.5l17.8,2.4c1.5,6.8,3.8,13.4,6.9,19.7l-60.4,63.1c-3.4-1.8-6.9-3.3-10.4-4.6V311.9L285,311.9z
			 M227,334.5l-19.5-32.7c6,4.2,12.6,7.6,19.5,10.1V334.5L227,334.5z M80,379c-14.9,0-27-12.1-27-27s12.1-27,27-27s27,12.1,27,27
			S94.9,379,80,379L80,379z M164.3,361.8c0.4-3.3,0.6-6.5,0.6-9.8c0-3.1-0.2-6.2-0.5-9.3l16.2,27.2L164.3,361.8L164.3,361.8z
			 M256,459c-14.9,0-27-12.1-27-27s12.1-27,27-27c14.9,0,27,12.1,27,27S270.9,459,256,459L256,459z"/>
	</g>
</g>
<path class="st2" d="M293.8,399.6c7.5,8.7,12,20,12,32.4c0,27.5-22.3,49.8-49.8,49.8s-49.8-22.3-49.8-49.8c0-5.8,1-11.2,2.8-16.4
	c3.4-10,10-18.5,18.5-24.5c8-5.7,17.8-9,28.5-9C271.1,382.2,284.7,389,293.8,399.6L293.8,399.6z"/>
<path class="st3" d="M432,206.6c27.3,0,49.4,22.1,49.4,49.4s-22.1,49.4-49.4,49.4c-13.3,0-25.3-5.2-34.1-13.8
	c-9.5-8.9-15.3-21.6-15.3-35.6c0-2.3,0.1-4.4,0.5-6.6c1.4-11,6.5-20.8,14-28.3C406,212.1,418.3,206.6,432,206.6z"/>
<path class="st4" d="M305.3,238.7c-3.2,24.3-24,43.1-49.3,43.1c-27.5,0-49.8-22.3-49.8-49.8c0-8,1.8-15.6,5.3-22.3
	c8.1-16.4,25-27.5,44.5-27.5c27.5,0,49.8,22.3,49.8,49.8C305.8,234.3,305.6,236.5,305.3,238.7z"/>
<path class="st5" d="M256,30.2c27.5,0,49.8,22.3,49.8,49.8c0,13.8-5.5,26.2-14.6,35.2c-9,9-21.4,14.6-35.2,14.6c-10,0-19.3-2.9-27-8
	c-9-5.8-16.1-14.5-19.8-24.8c-1.9-5.3-3-11-3-17C206.2,52.5,228.5,30.2,256,30.2z"/>
<path class="st6" d="M126.3,127.2c1.9,5.2,3,10.9,3,16.8c0,8-1.8,15.4-5.2,22c-4.2,8.5-10.8,15.5-18.9,20.3c-7.3,4.4-16,7-25.2,7
	c-27.3,0-49.3-22-49.3-49.3s22-49.3,49.3-49.3C101.3,94.7,119.4,108.2,126.3,127.2L126.3,127.2z"/>
<path class="st3" d="M129,352c0,7.9-1.8,15.3-5.2,21.9C115.8,390,99.2,401,80,401c-27.1,0-49-21.9-49-49s21.9-49,49-49
	c9.9,0,19,2.9,26.6,7.8C120.1,319.6,129,334.7,129,352z"/>
</svg>
